<?xml version="1.0" encoding="UTF-8"?>
<svg version="1.1" viewBox="0 0 2048 1228" width="1000" height="600" xmlns="http://www.w3.org/2000/svg">
<path transform="translate(1514,245)" d="m0 0h2l-4 16-17 59-15 53-2 6-7-6-11-11-7-8-12-12-4 1-81 81-8 7-102 102-5-1-20-10-13-8-16-9-18-10-16-9-28-16-22-12-15-9-4 2-35 35-8 7-109 109-8 7-25 25-5-2-14-8-24-13-19-11-21-12-20-11-24-14-17-9-7-5-4 1-39 39-8 7-107 107-8 7-15 15-4-2-18-18 2-4 79-79 8-7 59-59h2l2-4 4-4h2l2-4 4-2v-2l8-7 23-23 5 2 24 13 17 10 22 12 42 24 18 10 21 12 4 2 12-12h2v-2h2v-2l7-6 7-8 12-11 29-29 10-9 106-106 5 1 21 12 25 14 21 12 18 10 21 12 20 11 16 9 7 4 16-15 106-106 8-7 46-46 2-1-1-4-35-35v-2l26-7 64-16z" fill="#0F693B"/>
<path transform="translate(1232,61)" d="m0 0h124l1 4-1 260-93 93-8 7-22 22h-1z" fill="#43BC54"/>
<path transform="translate(884,205)" d="m0 0h123l1 1v226l-108 108-8 7-4-2-5-3v-336z" fill="#43BC54"/>
<path transform="translate(1097,497)" d="m0 0 6 2 22 12 17 10 29 16 10 6 1 1v258h-124l-1-1v-264z" fill="#43BC54"/>
<path transform="translate(1355,479)" d="m0 0h1l1 322-1 1h-124v-229l6 2 10 6 5-1 42-42 8-7 14-14z" fill="#43BC54"/>
<path transform="translate(1058,133)" d="m0 0h124v285l-6-2-23-13-21-12-52-29-8 7-13 13h-1l-1-24v-201z" fill="#43BC54"/>
<path transform="translate(709,277)" d="m0 0h124v237l-14-7-24-14-22-12-24-14-8-4-5 1-26 26h-1z" fill="#43BC54"/>
<path transform="translate(756,597)" d="m0 0 6 2 22 12 24 14 25 14v163h-124v-158z" fill="#43BC54"/>
<path transform="translate(1239,994)" d="m0 0h47l7 15 18 39 16 36 3 6 2-3 13-28 27-60 2-5h47v165h-37l-1-11-1-91-15 34-16 37-6 14h-29l-7-15-13-30-15-34-3-6-1 102h-37z" fill="#0F6A3B"/>
<path transform="translate(1006,587)" d="m0 0h1v215h-123l-1-1v-133l5 2 21 12 7-6 34-34 8-7z" fill="#43BC54"/>
<path transform="translate(608,994)" d="m0 0h38l10 13 14 19 13 17 12 16 14 19 11 14 1 1 1-99h38l1 1v164h-38l-10-13-14-19-16-21-10-14-16-21-8-11-1 2v97h-40z" fill="#0F693B"/>
<path transform="translate(809,994)" d="m0 0h83l19 4 12 5 12 7 11 9 8 10 7 12 5 16 2 15v12l-2 13-5 15-6 11-8 10-11 10-14 8-14 5-16 3-20 1h-63l-1-1v-164zm41 34v97h40l11-4 10-7 8-11 4-9 2-11v-11l-3-14-6-12-5-6-10-7-11-4-6-1z" fill="#0F693B"/>
<path transform="translate(1665,994)" d="m0 0h90l16 4 10 4 11 8 8 10 5 10 2 9v25l-3 12-6 12-8 9-9 6-2 2 9 15 12 19 12 18v2h-48l-12-23-10-19-3-4-32-1v47h-42zm42 33v53l40-1 10-4 6-5 4-8v-17l-4-9-6-5-7-3-7-1z" fill="#0F6A3B"/>
<path transform="translate(435,994)" d="m0 0h130v32l-1 1h-87v32h78l1 1v32l-3 1h-75l-1 33h90v33h-131l-1-1z" fill="#0F693B"/>
<path transform="translate(1521,994)" d="m0 0h44l4 8 15 36 19 45 17 40 13 31 1 5h-45l-11-29-1-1h-71l-12 30h-44l10-24 16-37 15-35 23-53zm20 43-12 30-11 27v2h47l-3-9-18-47z" fill="#0E683A"/>
<path transform="translate(1123,991)" d="m0 0h26l22 4 17 6 13 7 1 2-16 32-23-10-17-5-5-1h-16l-7 4-2 3v7l4 6 6 4 45 15 10 5 9 7 7 9 4 9 1 5v18l-4 12-7 10-9 8-15 7-12 3-7 1h-26l-19-4-18-6-16-9-9-7 16-32 5 2 11 8 17 8 14 4 5 1h17l8-4h2l2-6-1-8-5-6-11-5-36-11-16-8-9-8-7-14-1-4v-19l4-12 7-9 9-8 14-7z" fill="#0E683A"/>
<path transform="translate(145,991)" d="m0 0h24l18 3 16 5 16 8 3 2-2 6-8 16-5 11-6-2-10-5-17-6-13-3h-16l-7 4-2 4 1 8 4 5 8 4 25 8 15 5 14 7 10 9 6 9 3 10v20l-3 10-7 10-7 7-10 6-15 5-11 2h-27l-19-4-17-6-17-9-8-6 1-5 9-17 5-11 5 2 10 7 16 8 16 5 6 1h17l8-4 3-5v-8l-3-5-8-5-29-9-15-5-12-6-10-9-6-9-3-10v-18l5-13 7-9 8-7 12-6 15-4z" fill="#0E693A"/>
<path transform="translate(260,994)" d="m0 0h88l15 4 14 7 10 9 7 11 4 15v25l-5 16-7 11-7 7-11 7-16 5-7 1-31 1-12 1v45h-42zm41 33v52l1 1 36-1 10-4 6-5 4-8 1-5v-8l-2-8-4-6-6-5-5-2-7-1z" fill="#0E693A"/>
<path transform="translate(1835,994)" d="m0 0h141v34h-50v131h-42v-131h-49z" fill="#0E683A"/>
<path transform="translate(564,994)" d="m0 0h1v32l-1 1h-87v-1l85-1 1-3z" fill="#43BC54"/>
<path transform="translate(1076,1101)" d="m0 0 5 2 1 2-6-1-2 6-3 3 2-6z" fill="#43BC54"/>
</svg>
